<svg xmlns="http://www.w3.org/2000/svg" viewBox="0 0 64 64"><path d="M50.746 61.006A36.853 36.853 0 0 1 44.969 64l19.019-.01-.003-18.999c-.63 1.7-1.938 4.189-2.976 5.755l-3.791-3.782c-1.206 2.064-2.716 3.999-4.483 5.764a28.907 28.907 0 0 1-5.776 4.484l3.788 3.793Zm.287-20.239a20.919 20.919 0 0 1-4.216 6.041 20.787 20.787 0 0 1-6.053 4.22l5.173 5.165a27.621 27.621 0 0 0 5.814-4.452 28.249 28.249 0 0 0 4.458-5.804l-5.176-5.171Zm11.957-1.515c1.079-4.668 1.059-9.753-.011-14.5l-2.557.006c1.21 4.741 1.213 9.841-.003 14.479l2.571.016Zm-4.011-.005c1.231-4.442 1.288-9.736-.011-14.496l-7.305.008c1.716 4.669 1.728 9.89-.006 14.498l7.322-.01Zm2.035-26.001c.971 1.49 2.186 3.786 2.986 5.771L63.997.015 44.981-.001a37.902 37.902 0 0 1 5.779 2.996l-3.791 3.79a28.586 28.586 0 0 1 5.77 4.487 28.63 28.63 0 0 1 4.486 5.761l3.788-3.788Zm-20.237-.273a20.928 20.928 0 0 1 6.04 4.223c1.797 1.8 3.054 3.66 4.21 6.037l5.163-5.167a27.69 27.69 0 0 0-4.439-5.804 27.962 27.962 0 0 0-5.803-4.467l-5.172 5.178ZM39.248 1.022a33.264 33.264 0 0 0-14.505.003l.023 2.566a29.484 29.484 0 0 1 14.482-.003V1.022Zm.012 4.01a28.173 28.173 0 0 0-14.505 0v7.335a20.973 20.973 0 0 1 14.494-.007l.011-7.328ZM6.791 17.057a29.1 29.1 0 0 1 4.485-5.781 29.354 29.354 0 0 1 5.782-4.483l-3.794-3.779a33.932 33.932 0 0 1 5.749-2.99L.004.013 0 19.03a35.966 35.966 0 0 1 3.003-5.761l3.788 3.787ZM18.073 7.81c-2.086 1.163-4.041 2.667-5.819 4.444a27.983 27.983 0 0 0-4.442 5.816l5.17 5.174a20.891 20.891 0 0 1 4.213-6.042 20.976 20.976 0 0 1 6.046-4.217L18.072 7.81ZM5.035 24.751c-1.264 4.746-1.287 9.779.016 14.49l7.309.01a20.953 20.953 0 0 1 0-14.489l-7.324-.011Zm-4.008 0a32.927 32.927 0 0 0 .003 14.487l2.569.003c-1.193-4.707-1.2-9.679-.008-14.482l-2.564-.008ZM3 50.741A34.649 34.649 0 0 1 .01 44.97l.003 19.027 19.013-.009a34.604 34.604 0 0 1-5.769-2.997l3.804-3.782a29.1 29.1 0 0 1-5.786-4.476 29.235 29.235 0 0 1-4.478-5.789L3 50.74Zm4.806-4.809a28.015 28.015 0 0 0 4.451 5.821 27.699 27.699 0 0 0 5.806 4.436l5.179-5.176c-2.19-1-4.246-2.399-6.046-4.2a20.911 20.911 0 0 1-4.213-6.055l-5.176 5.175Zm16.954 5.724a21.091 21.091 0 0 0 14.485-.008l-.003 7.311c-4.788 1.322-9.746 1.265-14.482-.006v-7.297Zm.009 8.753c4.742 1.177 9.715 1.234 14.477.003l.003 2.562c-4.768 1.103-9.726 1.058-14.491-.009l.011-2.556Z" style="fill:#0076bd"/></svg>